<svg width="20" height="20" viewBox="0 0 20 20" fill="none" xmlns="http://www.w3.org/2000/svg">
<path d="M17.1875 2.97092L13.9844 0.351562L14.6505 3.51562L17.1875 2.97092Z" fill="white"/>
<path d="M14.4633 4.34479C14.4124 4.3556 14.36 4.35627 14.3088 4.34677C14.2577 4.33727 14.209 4.31778 14.1654 4.28942C14.1218 4.26106 14.0842 4.22439 14.0548 4.18149C14.0254 4.13859 14.0047 4.09031 13.9939 4.0394L13.1775 0.195313H3.64823C3.33334 0.195313 3.03135 0.320506 2.80869 0.543352C2.58603 0.766198 2.46094 1.06844 2.46094 1.38359V18.8117C2.46094 19.1269 2.58603 19.4291 2.80869 19.652C3.03135 19.8748 3.33334 20 3.64823 20H16.3127C16.6276 20 16.9296 19.8748 17.1522 19.652C17.3749 19.4291 17.5 19.1269 17.5 18.8117V3.69876L14.4633 4.34479ZM4.43976 3.36406H12.3551C12.46 3.36406 12.5607 3.40579 12.6349 3.48008C12.7091 3.55436 12.7508 3.65511 12.7508 3.76016C12.7508 3.86521 12.7091 3.96596 12.6349 4.04024C12.5607 4.11452 12.46 4.15625 12.3551 4.15625H4.43976C4.3348 4.15625 4.23413 4.11452 4.15991 4.04024C4.08569 3.96596 4.044 3.86521 4.044 3.76016C4.044 3.65511 4.08569 3.55436 4.15991 3.48008C4.23413 3.40579 4.3348 3.36406 4.43976 3.36406ZM4.43976 6.53281H13.5424C13.6473 6.53281 13.748 6.57454 13.8222 6.64883C13.8964 6.72311 13.9381 6.82386 13.9381 6.92891C13.9381 7.03396 13.8964 7.13471 13.8222 7.20899C13.748 7.28327 13.6473 7.325 13.5424 7.325H4.43976C4.3348 7.325 4.23413 7.28327 4.15991 7.20899C4.08569 7.13471 4.044 7.03396 4.044 6.92891C4.044 6.82386 4.08569 6.72311 4.15991 6.64883C4.23413 6.57454 4.3348 6.53281 4.43976 6.53281ZM7.60588 16.8313H4.43976C4.3348 16.8313 4.23413 16.7895 4.15991 16.7152C4.08569 16.641 4.044 16.5402 4.044 16.4352C4.044 16.3301 4.08569 16.2294 4.15991 16.1551C4.23413 16.0808 4.3348 16.0391 4.43976 16.0391H7.60588C7.71084 16.0391 7.81151 16.0808 7.88573 16.1551C7.95995 16.2294 8.00164 16.3301 8.00164 16.4352C8.00164 16.5402 7.95995 16.641 7.88573 16.7152C7.81151 16.7895 7.71084 16.8313 7.60588 16.8313ZM4.044 13.2664C4.044 13.1614 4.08569 13.0606 4.15991 12.9863C4.23413 12.912 4.3348 12.8703 4.43976 12.8703H13.5424C13.6473 12.8703 13.748 12.912 13.8222 12.9863C13.8964 13.0606 13.9381 13.1614 13.9381 13.2664C13.9381 13.3715 13.8964 13.4722 13.8222 13.5465C13.748 13.6208 13.6473 13.6625 13.5424 13.6625H4.43976C4.3348 13.6625 4.23413 13.6208 4.15991 13.5465C4.08569 13.4722 4.044 13.3715 4.044 13.2664ZM15.4052 14.7347L12.2391 17.9035C12.1649 17.9777 12.0642 18.0194 11.9593 18.0194C11.8544 18.0194 11.7537 17.9777 11.6795 17.9035L10.0964 16.3191C10.0243 16.2444 9.98445 16.1443 9.98535 16.0405C9.98625 15.9366 10.0279 15.8373 10.1012 15.7638C10.1746 15.6904 10.2739 15.6488 10.3777 15.6479C10.4814 15.6469 10.5814 15.6869 10.656 15.759L11.9593 17.0634L14.8456 14.1746C14.9202 14.1025 15.0202 14.0626 15.124 14.0635C15.2278 14.0644 15.327 14.106 15.4004 14.1795C15.4738 14.2529 15.5154 14.3523 15.5163 14.4561C15.5172 14.56 15.4773 14.66 15.4052 14.7347ZM15.5212 10.4938H4.43976C4.3348 10.4938 4.23413 10.452 4.15991 10.3777C4.08569 10.3035 4.044 10.2027 4.044 10.0977C4.044 9.99261 4.08569 9.89186 4.15991 9.81758C4.23413 9.74329 4.3348 9.70156 4.43976 9.70156H15.5212C15.6261 9.70156 15.7268 9.74329 15.801 9.81758C15.8752 9.89186 15.9169 9.99261 15.9169 10.0977C15.9169 10.2027 15.8752 10.3035 15.801 10.3777C15.7268 10.452 15.6261 10.4938 15.5212 10.4938Z" fill="white"/>
</svg>
