<svg width="20" height="20" viewBox="0 0 20 20" fill="none" xmlns="http://www.w3.org/2000/svg">
<path d="M13.2936 6.22512H15.5132L14.4084 3.29712L13.2936 6.22512Z" fill="white"/>
<path d="M14.4 0C13.2924 0 12.2097 0.328434 11.2888 0.94377C10.3679 1.55911 9.65012 2.43371 9.22626 3.45697C8.80241 4.48024 8.69152 5.60621 8.90759 6.6925C9.12367 7.7788 9.65702 8.77662 10.4402 9.5598C11.2234 10.343 12.2212 10.8763 13.3075 11.0924C14.3938 11.3085 15.5198 11.1976 16.543 10.7737C17.5663 10.3499 18.4409 9.63211 19.0562 8.71119C19.6716 7.79028 20 6.70757 20 5.6C19.9984 4.11527 19.4079 2.69182 18.358 1.64196C17.3082 0.592097 15.8847 0.00158823 14.4 0ZM16.752 8.3744C16.7028 8.39297 16.6505 8.40168 16.598 8.40003C16.5455 8.39839 16.4938 8.38641 16.446 8.36479C16.3981 8.34317 16.3549 8.31234 16.319 8.27404C16.283 8.23575 16.255 8.19074 16.2364 8.1416L15.8152 7.0252H12.9888L12.5632 8.142C12.5455 8.19241 12.518 8.23877 12.4821 8.27835C12.4462 8.31793 12.4028 8.34993 12.3544 8.37246C12.306 8.39499 12.2535 8.40759 12.2001 8.40952C12.1468 8.41145 12.0936 8.40268 12.0436 8.38371C11.9937 8.36474 11.9481 8.33597 11.9094 8.29909C11.8708 8.2622 11.84 8.21796 11.8187 8.16896C11.7975 8.11996 11.7862 8.0672 11.7857 8.01379C11.7852 7.96039 11.7953 7.90741 11.8156 7.858L13.9184 2.338C13.9564 2.23977 14.023 2.15519 14.1096 2.09519C14.1962 2.03519 14.2987 2.00252 14.4041 2.0014C14.5094 2.00028 14.6126 2.03076 14.7005 2.08891C14.7883 2.14706 14.8567 2.2302 14.8968 2.3276L16.9848 7.8596C17.022 7.95874 17.0185 8.06862 16.9748 8.16513C16.9312 8.26164 16.851 8.3369 16.752 8.3744Z" fill="white"/>
<path d="M5.59999 8.80005C4.49242 8.80005 3.40972 9.12848 2.48881 9.74382C1.56789 10.3592 0.850126 11.2338 0.426276 12.257C0.00242638 13.2803 -0.108472 14.4063 0.107605 15.4926C0.323682 16.5788 0.857029 17.5767 1.6402 18.3598C2.42337 19.143 3.4212 19.6764 4.50749 19.8924C5.59378 20.1085 6.71975 19.9976 7.74301 19.5738C8.76628 19.1499 9.64088 18.4322 10.2562 17.5112C10.8715 16.5903 11.2 15.5076 11.2 14.4C11.1984 12.9153 10.6079 11.4919 9.55803 10.442C8.50817 9.39214 7.08471 8.80164 5.59999 8.80005ZM7.46799 17.6H3.732C3.65994 17.6001 3.58922 17.5806 3.52731 17.5438C3.46539 17.5069 3.41459 17.454 3.38025 17.3907C3.34591 17.3273 3.32932 17.2559 3.33224 17.1839C3.33515 17.1119 3.35746 17.042 3.3968 16.9816L6.64279 12H3.8468C3.74071 12 3.63897 11.9579 3.56395 11.8829C3.48894 11.8079 3.4468 11.7061 3.4468 11.6C3.4468 11.494 3.48894 11.3922 3.56395 11.3172C3.63897 11.2422 3.74071 11.2 3.8468 11.2H7.38079C7.45284 11.2 7.52356 11.2195 7.58548 11.2563C7.64739 11.2932 7.6982 11.3461 7.73253 11.4094C7.76687 11.4728 7.78346 11.5442 7.78055 11.6162C7.77763 11.6882 7.75533 11.7581 7.71599 11.8184L4.46999 16.8H7.46999C7.57607 16.8 7.67782 16.8422 7.75283 16.9172C7.82785 16.9922 7.86999 17.094 7.86999 17.2C7.86999 17.3061 7.82785 17.4079 7.75283 17.4829C7.67782 17.5579 7.57607 17.6 7.46999 17.6H7.46799Z" fill="white"/>
</svg>
