<svg width="20" height="20" viewBox="0 0 20 20" fill="none" xmlns="http://www.w3.org/2000/svg">
<path d="M17.6 10.4C17.4939 10.4 17.3922 10.3579 17.3172 10.2828C17.2421 10.2078 17.2 10.1061 17.2 10C17.2 9.89391 17.2421 9.79217 17.3172 9.71716C17.3922 9.64214 17.4939 9.6 17.6 9.6H20V7.6C20 7.28174 19.8736 6.97652 19.6485 6.75147C19.4235 6.52643 19.1183 6.4 18.8 6.4H7.6C7.49391 6.4 7.39217 6.35786 7.31716 6.28284C7.24214 6.20783 7.2 6.10609 7.2 6V1.2C7.2 0.88174 7.07357 0.576515 6.84853 0.351472C6.62348 0.126428 6.31826 0 6 0H4V2.4C4 2.50609 3.95786 2.60783 3.88284 2.68284C3.80783 2.75786 3.70609 2.8 3.6 2.8C3.49391 2.8 3.39217 2.75786 3.31716 2.68284C3.24214 2.60783 3.2 2.50609 3.2 2.4V0H1.2C0.88174 0 0.576515 0.126428 0.351472 0.351472C0.126428 0.576515 0 0.88174 0 1.2V12.4C0 12.7183 0.126428 13.0235 0.351472 13.2485C0.576515 13.4736 0.88174 13.6 1.2 13.6H6C6.10609 13.6 6.20783 13.6421 6.28284 13.7172C6.35786 13.7922 6.4 13.8939 6.4 14V18.8C6.4 19.1183 6.52643 19.4235 6.75147 19.6485C6.97652 19.8736 7.28174 20 7.6 20H9.6V17.6C9.6 17.4939 9.64214 17.3922 9.71716 17.3172C9.79217 17.2421 9.89391 17.2 10 17.2C10.1061 17.2 10.2078 17.2421 10.2828 17.3172C10.3579 17.3922 10.4 17.4939 10.4 17.6V20H12.4C12.7183 20 13.0235 19.8736 13.2485 19.6485C13.4736 19.4235 13.6 19.1183 13.6 18.8V14C13.6 13.8939 13.6421 13.7922 13.7172 13.7172C13.7922 13.6421 13.8939 13.6 14 13.6H18.8C19.1183 13.6 19.4235 13.4736 19.6485 13.2485C19.8736 13.0235 20 12.7183 20 12.4V10.4H17.6ZM3.6 7.2C3.49391 7.2 3.39217 7.15786 3.31716 7.08284C3.24214 7.00783 3.2 6.90609 3.2 6.8V4.8C3.2 4.69391 3.24214 4.59217 3.31716 4.51716C3.39217 4.44214 3.49391 4.4 3.6 4.4C3.70609 4.4 3.80783 4.44214 3.88284 4.51716C3.95786 4.59217 4 4.69391 4 4.8V6.8C4 6.90609 3.95786 7.00783 3.88284 7.08284C3.80783 7.15786 3.70609 7.2 3.6 7.2ZM6.4 10.4H4.4C4.29391 10.4 4.19217 10.3579 4.11716 10.2828C4.04214 10.2078 4 10.1061 4 10C4 9.89391 4.04214 9.79217 4.11716 9.71716C4.19217 9.64214 4.29391 9.6 4.4 9.6H6.4C6.50609 9.6 6.60783 9.64214 6.68284 9.71716C6.75786 9.79217 6.8 9.89391 6.8 10C6.8 10.1061 6.75786 10.2078 6.68284 10.2828C6.60783 10.3579 6.50609 10.4 6.4 10.4ZM10.4 15.2C10.4 15.3061 10.3579 15.4078 10.2828 15.4828C10.2078 15.5579 10.1061 15.6 10 15.6C9.89391 15.6 9.79217 15.5579 9.71716 15.4828C9.64214 15.4078 9.6 15.3061 9.6 15.2V13.2C9.6 13.0939 9.64214 12.9922 9.71716 12.9172C9.79217 12.8421 9.89391 12.8 10 12.8C10.1061 12.8 10.2078 12.8421 10.2828 12.9172C10.3579 12.9922 10.4 13.0939 10.4 13.2V15.2ZM10.8 10.4H8.8C8.69391 10.4 8.59217 10.3579 8.51716 10.2828C8.44214 10.2078 8.4 10.1061 8.4 10C8.4 9.89391 8.44214 9.79217 8.51716 9.71716C8.59217 9.64214 8.69391 9.6 8.8 9.6H10.8C10.9061 9.6 11.0078 9.64214 11.0828 9.71716C11.1579 9.79217 11.2 9.89391 11.2 10C11.2 10.1061 11.1579 10.2078 11.0828 10.2828C11.0078 10.3579 10.9061 10.4 10.8 10.4ZM15.2 10.4H13.2C13.0939 10.4 12.9922 10.3579 12.9172 10.2828C12.8421 10.2078 12.8 10.1061 12.8 10C12.8 9.89391 12.8421 9.79217 12.9172 9.71716C12.9922 9.64214 13.0939 9.6 13.2 9.6H15.2C15.3061 9.6 15.4078 9.64214 15.4828 9.71716C15.5579 9.79217 15.6 9.89391 15.6 10C15.6 10.1061 15.5579 10.2078 15.4828 10.2828C15.4078 10.3579 15.3061 10.4 15.2 10.4Z" fill="white" fill-opacity="0.97"/>
</svg>
