<svg width="20" height="20" viewBox="0 0 20 20" fill="none" xmlns="http://www.w3.org/2000/svg">
<path d="M16.6 0H6.2C5.88174 0 5.57652 0.126428 5.35147 0.351472C5.12643 0.576515 5 0.88174 5 1.2V1.6H14.2C14.7302 1.60064 15.2386 1.81155 15.6135 2.18649C15.9884 2.56142 16.1994 3.06976 16.2 3.6V17.6H16.6C16.9183 17.6 17.2235 17.4736 17.4485 17.2485C17.6736 17.0235 17.8 16.7183 17.8 16.4V1.2C17.8 0.88174 17.6736 0.576515 17.4485 0.351472C17.2235 0.126428 16.9183 0 16.6 0Z" fill="white"/>
<path d="M5.40002 15.2H12.2V16.8H5.40002V15.2Z" fill="white"/>
<path d="M5.40002 10.4H12.2V12H5.40002V10.4Z" fill="white"/>
<path d="M8.20001 5.59998H12.2V7.19998H8.20001V5.59998Z" fill="white"/>
<path d="M14.2 2.40002H3.40001C3.08175 2.40002 2.77653 2.52645 2.55148 2.7515C2.32644 2.97654 2.20001 3.28176 2.20001 3.60002V18.8C2.20001 19.1183 2.32644 19.4235 2.55148 19.6486C2.77653 19.8736 3.08175 20 3.40001 20H14.2C14.5183 20 14.8235 19.8736 15.0485 19.6486C15.2736 19.4235 15.4 19.1183 15.4 18.8V3.60002C15.4 3.28176 15.2736 2.97654 15.0485 2.7515C14.8235 2.52645 14.5183 2.40002 14.2 2.40002ZM13 17.2C13 17.3061 12.9579 17.4079 12.8829 17.4829C12.8078 17.5579 12.7061 17.6 12.6 17.6H5.00001C4.89393 17.6 4.79218 17.5579 4.71717 17.4829C4.64215 17.4079 4.60001 17.3061 4.60001 17.2V14.8C4.60001 14.6939 4.64215 14.5922 4.71717 14.5172C4.79218 14.4422 4.89393 14.4 5.00001 14.4H12.6C12.7061 14.4 12.8078 14.4422 12.8829 14.5172C12.9579 14.5922 13 14.6939 13 14.8V17.2ZM13 12.4C13 12.5061 12.9579 12.6079 12.8829 12.6829C12.8078 12.7579 12.7061 12.8 12.6 12.8H5.00001C4.89393 12.8 4.79218 12.7579 4.71717 12.6829C4.64215 12.6079 4.60001 12.5061 4.60001 12.4V10C4.60001 9.89394 4.64215 9.7922 4.71717 9.71718C4.79218 9.64217 4.89393 9.60002 5.00001 9.60002H12.6C12.7061 9.60002 12.8078 9.64217 12.8829 9.71718C12.9579 9.7922 13 9.89394 13 10V12.4ZM13 7.60002C13 7.70611 12.9579 7.80785 12.8829 7.88287C12.8078 7.95788 12.7061 8.00002 12.6 8.00002H7.80001C7.69393 8.00002 7.59218 7.95788 7.51717 7.88287C7.44215 7.80785 7.40001 7.70611 7.40001 7.60002V5.20002C7.40001 5.09394 7.44215 4.9922 7.51717 4.91718C7.59218 4.84217 7.69393 4.80002 7.80001 4.80002H12.6C12.7061 4.80002 12.8078 4.84217 12.8829 4.91718C12.9579 4.9922 13 5.09394 13 5.20002V7.60002Z" fill="white"/>
</svg>
